<?xml version="1.0" standalone="no"?>
<!DOCTYPE svg PUBLIC "-//W3C//DTD SVG 20010904//EN"
 "http://www.w3.org/TR/2001/REC-SVG-20010904/DTD/svg10.dtd">
<svg version="1.0" xmlns="http://www.w3.org/2000/svg"
 width="885.000000pt" height="885.000000pt" viewBox="0 0 885.000000 885.000000"
 preserveAspectRatio="xMidYMid meet">
<metadata>
Created by potrace 1.11, written by Peter Selinger 2001-2013
</metadata>
<g transform="translate(0.000000,885.000000) scale(0.100000,-0.100000)"
fill="#000000" stroke="none">
<path d="M3230 8829 c0 -6 23 -94 50 -195 28 -101 50 -188 50 -192 0 -5 -44
-24 -97 -42 -54 -18 -165 -62 -248 -97 -1243 -529 -2135 -1608 -2409 -2918
-67 -318 -98 -748 -77 -1045 39 -536 147 -968 360 -1440 240 -529 640 -1042
1099 -1407 428 -340 886 -576 1407 -722 176 -49 440 -101 513 -101 13 0 55 40
117 113 54 61 108 124 121 139 26 30 31 48 13 48 -20 0 -191 85 -269 133 -158
99 -337 263 -471 432 -76 95 -184 259 -253 383 -52 94 -77 143 -157 319 l-28
62 127 30 c367 86 698 131 1164 157 l118 6 2 -640 3 -640 123 144 122 143 0
496 0 497 128 -7 c332 -16 684 -58 949 -111 125 -25 325 -72 331 -79 6 -6
-100 -230 -160 -340 -68 -126 -203 -332 -274 -420 -92 -115 -146 -173 -164
-178 -19 -5 -12 -28 -157 496 -20 71 -39 125 -44 120 -64 -66 -1136 -1330
-1131 -1334 10 -9 1654 -560 1658 -556 2 2 -21 92 -51 201 -30 109 -55 199
-55 201 0 2 44 18 98 36 326 108 716 307 1007 514 385 274 737 626 1011 1013
461 650 724 1478 724 2282 0 594 -113 1125 -352 1660 -298 664 -777 1228
-1397 1644 -373 251 -805 441 -1227 541 -130 31 -367 75 -402 75 -22 -1 -48
-25 -145 -140 -65 -76 -117 -142 -116 -147 2 -4 31 -20 66 -35 416 -175 779
-575 1045 -1151 38 -82 67 -151 65 -153 -8 -8 -305 -73 -447 -98 -265 -47
-464 -68 -862 -91 l-98 -5 -2 637 -3 638 -122 -145 -123 -144 0 -493 0 -493
-102 5 c-328 18 -549 41 -793 81 -130 21 -402 78 -487 102 l-28 7 54 117 c103
224 215 415 351 596 94 127 201 240 213 227 5 -6 46 -147 92 -315 45 -168 84
-307 86 -308 1 -2 260 296 574 663 315 367 568 671 563 675 -8 8 -1631 560
-1645 560 -5 0 -8 -5 -8 -11z m2535 -1098 c279 -121 570 -294 795 -475 87 -70
296 -254 323 -284 19 -20 18 -21 -20 -40 -156 -79 -570 -239 -584 -225 -4 5
-31 60 -59 122 -150 337 -405 726 -599 916 -28 27 -51 53 -51 57 0 9 48 -8
195 -71z m-2759 -433 c-76 -117 -176 -303 -248 -460 -33 -73 -61 -134 -63
-136 -6 -6 -418 149 -434 164 -14 13 184 166 374 290 117 76 388 223 412 224
7 0 -12 -37 -41 -82z m4157 -655 c110 -143 149 -201 244 -368 266 -464 420
-969 453 -1481 5 -88 10 -169 10 -181 l0 -23 -590 0 -590 0 0 23 c-1 71 -22
395 -36 527 -42 425 -136 879 -254 1224 -16 49 -28 92 -25 94 3 3 62 26 132
52 157 57 316 124 448 189 55 27 105 50 112 50 7 1 50 -47 96 -106z m-4972
-22 c74 -32 190 -79 259 -104 69 -25 132 -48 142 -52 15 -6 13 -15 -13 -93
-167 -492 -276 -1127 -292 -1702 l-2 -75 -582 -3 -583 -2 0 35 c0 56 39 320
65 442 103 478 333 970 626 1338 58 74 237 275 243 275 2 0 63 -26 137 -59z
m879 -286 c298 -67 629 -115 950 -135 96 -6 212 -13 258 -16 l82 -6 0 -794 0
-794 -905 0 c-498 0 -905 3 -905 8 0 4 5 86 10 182 26 452 86 849 185 1228 33
125 101 347 112 366 3 4 17 5 32 2 14 -3 96 -21 181 -41z m3093 -102 c104
-326 167 -627 216 -1023 15 -118 41 -471 41 -552 l0 -68 -905 0 -905 0 0 795
c0 437 3 795 8 795 76 1 436 24 552 35 269 27 633 89 835 144 117 32 105 41
158 -126z m-3876 -1988 c15 -539 117 -1156 273 -1637 l47 -146 -131 -47 c-166
-60 -307 -121 -456 -195 l-117 -58 -90 116 c-246 320 -429 677 -557 1086 -82
265 -130 542 -143 829 l-6 137 589 -2 589 -3 2 -80z m2073 -709 l0 -794 -137
-6 c-450 -22 -818 -71 -1186 -156 -94 -22 -174 -37 -178 -32 -12 12 -78 227
-119 386 -96 371 -155 764 -180 1206 -5 96 -10 178 -10 183 0 4 407 7 905 7
l905 0 0 -794z m2060 732 c0 -89 -17 -327 -36 -503 -40 -382 -119 -767 -224
-1090 -23 -71 -44 -132 -45 -133 -2 -2 -70 12 -152 31 -390 94 -725 138 -1220
163 l-133 7 0 793 0 794 905 0 905 0 0 -62z m1435 20 c-43 -390 -95 -619 -206
-908 -150 -394 -391 -785 -660 -1073 l-64 -69 -130 57 c-71 32 -194 81 -273
110 -79 29 -145 55 -148 57 -2 3 8 38 22 79 42 125 111 376 148 544 77 352
117 670 142 1128 l6 117 584 0 584 0 -5 -42z m-5111 -2175 c161 -363 368 -681
595 -917 96 -99 98 -99 -74 -29 -277 113 -590 295 -826 481 -114 89 -350 301
-356 318 -2 6 59 39 136 73 136 60 445 180 467 181 6 0 32 -48 58 -107z m3658
66 c157 -56 318 -122 318 -130 0 -12 -223 -181 -350 -265 -167 -109 -434 -254
-446 -241 -2 1 22 42 52 91 75 120 201 359 255 483 24 57 47 103 51 103 3 0
57 -18 120 -41z"/>
</g>
</svg>
