<?xml version="1.0" encoding="utf-8"?>
<!-- Generator: Adobe Illustrator 22.0.1, SVG Export Plug-In . SVG Version: 6.00 Build 0)  -->
<svg version="1.1" id="Layer_1" xmlns="http://www.w3.org/2000/svg" xmlns:xlink="http://www.w3.org/1999/xlink" x="0px" y="0px"
	 viewBox="0 0 244.8 170.8" style="enable-background:new 0 0 244.8 170.8;" xml:space="preserve">
<style type="text/css">
	.st0{fill:#434242;}
	.st1{fill:none;}
	.st2{fill:url(#SVGID_1_);filter:url(#Adobe_OpacityMaskFilter);}
	.st3{mask:url(#id0_1_);fill:#434242;}
</style>
<g id="Plan_x0020_1">
	<g id="_845890608">
		<path class="st0" d="M18.6,56.2h26.5v3.6H18.6c-0.7,0-1.2,0.3-1.6,0.7c-0.4,0.4-0.7,1-0.7,1.6v95.9c0,0.7,0.3,1.2,0.7,1.6l0,0
			c0.4,0.4,1,0.7,1.6,0.7h195.5c0.6,0,1.2-0.3,1.6-0.7l0,0c0.4-0.4,0.7-1,0.7-1.6V62.2c0-0.6-0.3-1.2-0.7-1.6
			c-0.4-0.4-1-0.7-1.6-0.7h-26.5v-3.6h26.5c1.6,0,3.1,0.7,4.2,1.7l0,0c1.1,1.1,1.7,2.6,1.7,4.2v95.9c0,1.6-0.7,3.1-1.7,4.2h0
			c-1.1,1.1-2.6,1.8-4.2,1.8H18.6c-1.6,0-3.1-0.7-4.2-1.8l0,0c-1.1-1.1-1.8-2.6-1.8-4.2V62.2c0-1.6,0.7-3.1,1.8-4.2
			C15.5,56.9,17,56.2,18.6,56.2z"/>
		<path class="st0" d="M22.4,94.8h187.9c1.4,0,2.5,1.1,2.5,2.5v56.9c0,1.4-1.1,2.5-2.5,2.5H22.4c-1.3,0-2.4-1.1-2.4-2.5V97.3
			C20,95.9,21.1,94.8,22.4,94.8z M47.2,133.3h22.5v18.3h93.2v-18.3h22.6c1.1,0,2.1-0.9,2.1-2.1v-20.6c0-1.1-0.9-2.1-2.1-2.1H47.2
			c-1.1,0-2.1,0.9-2.1,2.1v20.6C45.2,132.4,46.1,133.3,47.2,133.3z M32.2,114c4.1,0,7.4-3.3,7.4-7.4c0-4.1-3.3-7.4-7.4-7.4
			c-4.1,0-7.5,3.3-7.5,7.4C24.7,110.7,28.1,114,32.2,114z"/>
		<path class="st0" d="M69.8,29.3H49.3c-0.6,0-1.2,0.3-1.6,0.7l0,0c-0.4,0.4-0.7,1-0.7,1.6v53c0,0.6,0.3,1.2,0.7,1.6l0,0
			c0.4,0.4,1,0.7,1.6,0.7h134.2c0.6,0,1.2-0.3,1.6-0.7c0.4-0.4,0.7-1,0.7-1.6v-53c0-0.6-0.3-1.2-0.7-1.6l0,0c-0.4-0.4-1-0.7-1.6-0.7
			h-33.8v-3.7h33.8c1.6,0,3.1,0.7,4.2,1.8l0,0c1.1,1.1,1.8,2.6,1.8,4.2v53c0,1.6-0.7,3.1-1.8,4.2c-1.1,1.1-2.6,1.8-4.2,1.8H49.3
			c-1.6,0-3.1-0.7-4.2-1.8l0,0l0,0c-1.1-1.1-1.8-2.6-1.8-4.2v-53c0-1.6,0.7-3.1,1.8-4.2l0,0c1.1-1.1,2.6-1.8,4.2-1.8h20.5V29.3z"/>
		<rect x="49.3" y="27.4" class="st0" width="6.3" height="61.3"/>
		<rect x="177.2" y="27.4" class="st0" width="6.3" height="61.3"/>
		<polygon class="st0" points="131.7,11.3 71.6,11.3 71.6,86.9 161.1,86.9 161.1,40.7 164.8,40.7 164.8,88.7 164.8,90.5 162.9,90.5 
			69.8,90.5 68,90.5 68,88.7 68,9.5 68,7.7 69.8,7.7 131.7,7.7 		"/>
		<polygon class="st0" points="133.5,9.5 133.5,38.9 162.9,38.9 162.9,42.6 131.7,42.6 129.9,42.6 129.9,40.7 129.9,9.5 		"/>
		<polygon class="st0" points="131.7,7.7 164.8,40.7 161.6,42 130.4,10.8 		"/>
		<path class="st0" d="M69.7,114.8h93.2h1.8v1.8v35.1v1.8h-1.8H69.7h-1.8v-1.8v-35.1v-1.8H69.7z M161.1,118.5H71.6v31.4h89.5V118.5z
			"/>
		<polygon class="st0" points="75.9,120.7 111,120.7 111,124 75.9,124 		"/>
		<polygon class="st0" points="75.9,124.9 137.3,124.9 137.3,128.2 75.9,128.2 		"/>
		<polygon class="st0" points="75.9,129 128.2,129 128.2,132.3 75.9,132.3 		"/>
		<polygon class="st0" points="75.9,133.1 149.6,133.1 149.6,136.4 75.9,136.4 		"/>
		<polygon class="st0" points="75.9,141.4 103.2,141.4 103.2,144.7 75.9,144.7 		"/>
	</g>
</g>
</svg>
